{
	"asset":{
		"generator":"Khronos glTF Blender I/O v3.6.27",
		"version":"2.0"
	},
	"scene":0,
	"scenes":[
		{
			"name":"Scene",
			"nodes":[
				0
			]
		}
	],
	"nodes":[
		{
			"mesh":0,
			"name":"ChamberFloor"
		}
	],
	"meshes":[
		{
			"name":"ChamberFloor",
			"primitives":[
				{
					"attributes":{
						"POSITION":0,
						"NORMAL":1
					},
					"indices":2
				}
			]
		}
	],
	"accessors":[
		{
			"bufferView":0,
			"componentType":5126,
			"count":1082,
			"max":[
				400,
				400,
				0
			],
			"min":[
				-400,
				-400,
				-450
			],
			"type":"VEC3"
		},
		{
			"bufferView":1,
			"componentType":5126,
			"count":1082,
			"type":"VEC3"
		},
		{
			"bufferView":2,
			"componentType":5123,
			"count":1992,
			"type":"SCALAR"
		}
	],
	"bufferViews":[
		{
			"buffer":0,
			"byteLength":12984,
			"byteOffset":0,
			"target":34962
		},
		{
			"buffer":0,
			"byteLength":12984,
			"byteOffset":12984,
			"target":34962
		},
		{
			"buffer":0,
			"byteLength":3984,
			"byteOffset":25968,
			"target":34963
		}
	],
	"buffers":[
		{
			"byteLength":29952,
			"uri":"data:application/octet-stream;base64,"
		}
	]
}
