{
	"asset":{
		"generator":"Khronos glTF Blender I/O v3.6.27",
		"version":"2.0"
	},
	"scene":0,
	"scenes":[
		{
			"name":"Scene",
			"nodes":[
				0
			]
		}
	],
	"nodes":[
		{
			"mesh":0,
			"name":"ThreeStageBowl"
		}
	],
	"meshes":[
		{
			"name":"ThreeStageBowl",
			"primitives":[
				{
					"attributes":{
						"POSITION":0,
						"NORMAL":1
					},
					"indices":2
				}
			]
		}
	],
	"accessors":[
		{
			"bufferView":0,
			"componentType":5126,
			"count":11276,
			"max":[
				224.91456604003906,
				225,
				0
			],
			"min":[
				-224.91456604003906,
				-224.65834045410156,
				-300
			],
			"type":"VEC3"
		},
		{
			"bufferView":1,
			"componentType":5126,
			"count":11276,
			"type":"VEC3"
		},
		{
			"bufferView":2,
			"componentType":5123,
			"count":13914,
			"type":"SCALAR"
		}
	],
	"bufferViews":[
		{
			"buffer":0,
			"byteLength":135312,
			"byteOffset":0,
			"target":34962
		},
		{
			"buffer":0,
			"byteLength":135312,
			"byteOffset":135312,
			"target":34962
		},
		{
			"buffer":0,
			"byteLength":27828,
			"byteOffset":270624,
			"target":34963
		}
	],
	"buffers":[
		{
			"byteLength":298452,
			"uri":"data:application/octet-stream;base64,"
		}
	]
}
